<svg width="30" height="30" viewBox="0 0 30 30" fill="none" xmlns="http://www.w3.org/2000/svg">
<circle cx="15" cy="15" r="15" transform="rotate(90 15 15)" fill="white"/>
<path fill-rule="evenodd" clip-rule="evenodd" d="M13.1928 13.1929C13.6721 12.7136 14.3221 12.4444 14.9999 12.4444C15.6777 12.4444 16.3277 12.7136 16.8069 13.1929C17.2862 13.6722 17.5554 14.3222 17.5554 15C17.5554 15.6777 17.2862 16.3277 16.8069 16.807C16.3277 17.2863 15.6777 17.5555 14.9999 17.5555C14.3221 17.5555 13.6721 17.2863 13.1928 16.807C12.7136 16.3277 12.4443 15.6777 12.4443 15C12.4443 14.3222 12.7136 13.6722 13.1928 13.1929ZM14.9999 14.4444C14.8525 14.4444 14.7112 14.5029 14.6071 14.6071C14.5029 14.7113 14.4443 14.8526 14.4443 15C14.4443 15.1473 14.5029 15.2886 14.6071 15.3928C14.7112 15.497 14.8525 15.5555 14.9999 15.5555C15.1472 15.5555 15.2885 15.497 15.3927 15.3928C15.4969 15.2886 15.5554 15.1473 15.5554 15C15.5554 14.8526 15.4969 14.7113 15.3927 14.6071C15.2885 14.5029 15.1472 14.4444 14.9999 14.4444Z" fill="#696F8C"/>
<path fill-rule="evenodd" clip-rule="evenodd" d="M9.18053 15C10.8558 17.5473 12.7985 18.6666 15 18.6666C17.2015 18.6666 19.1442 17.5473 20.8195 15C19.1442 12.4527 17.2015 11.3333 15 11.3333C12.7985 11.3333 10.8558 12.4527 9.18053 15ZM7.14251 14.4855C9.12886 11.1749 11.7444 9.33331 15 9.33331C18.2556 9.33331 20.8711 11.1749 22.8575 14.4855C23.0475 14.8022 23.0475 15.1978 22.8575 15.5145C20.8711 18.8251 18.2556 20.6666 15 20.6666C11.7444 20.6666 9.12886 18.8251 7.14251 15.5145C6.9525 15.1978 6.9525 14.8022 7.14251 14.4855Z" fill="#696F8C"/>
<path fill-rule="evenodd" clip-rule="evenodd" d="M21.0643 9.651C21.4411 10.0547 21.4193 10.6875 21.0156 11.0644L11.0156 20.3977C10.6118 20.7745 9.97903 20.7527 9.6022 20.349C9.22537 19.9452 9.24719 19.3124 9.65094 18.9356L19.6509 9.60226C20.0547 9.22543 20.6875 9.24725 21.0643 9.651Z" fill="#696F8C"/>
</svg>
